<svg xmlns="http://www.w3.org/2000/svg" version="1.1" xmlns:xlink="http://www.w3.org/1999/xlink" xmlns:svgjs="http://svgjs.com/svgjs" width="1366" height="738" preserveAspectRatio="none" viewBox="0 0 1366 738"><g mask="url(&quot;#SvgjsMask1044&quot;)" fill="none"><rect width="1366" height="738" x="0" y="0" fill="url(#SvgjsLinearGradient1045)"></rect><path d="M1024.453917306261 609.4773674521331L980.8939884658477 434.7680353928248 806.1846564065394 478.3279642332382 849.7445852469527 653.0372962925464z" fill="rgba(28, 83, 142, 0.4)" class="triangle-float2"></path><path d="M643.222,666.929C718.081,669.966,794.164,632.444,826.382,564.804C855.632,503.396,815.731,437.955,779.794,380.206C746.724,327.064,705.597,275.667,643.222,270.474C571.786,264.527,495.998,291.286,460.625,353.633C425.598,415.37,448.367,489.595,484.109,550.92C519.534,611.701,572.929,664.078,643.222,666.929" fill="rgba(28, 83, 142, 0.4)" class="triangle-float3"></path><path d="M411.1694624829634 220.11453592433014L416.26471071374135 366.02335480021594 562.1735295896272 360.928106569438 557.0782813588492 215.01928769355217z" fill="rgba(28, 83, 142, 0.4)" class="triangle-float2"></path><path d="M1150.9343637278519 567.688428546485L952.9423538846427 532.7770952464314 918.031020584589 730.7691050896404 1116.0230304277982 765.6804383896942z" fill="rgba(28, 83, 142, 0.4)" class="triangle-float1"></path><path d="M123.475,434.033C152.85,433.079,182.684,422.269,196.625,396.396C210.017,371.541,201.158,341.88,185.943,318.097C172.058,296.393,149.181,283.816,123.475,282.053C93.692,280.011,61.054,283.756,44.17,308.376C25.36,335.804,23.856,373.305,41.606,401.43C58.409,428.054,92.009,435.055,123.475,434.033" fill="rgba(28, 83, 142, 0.4)" class="triangle-float1"></path><path d="M438.4871270078569 6.9396507813758355L270.85323850118925 48.73547341157973 312.6490611313931 216.3693619182474 480.2829496380608 174.5735392880435z" fill="rgba(28, 83, 142, 0.4)" class="triangle-float2"></path><path d="M459.3421659506922 147.51020895207944L449.67430002365546 9.253284914890514 311.41737598646654 18.921150841927272 321.0852419135033 157.1780748791162z" fill="rgba(28, 83, 142, 0.4)" class="triangle-float2"></path><path d="M283.98860437084204 375.1573135124225L383.6928878173277 599.672400370198 512.9290131040066 428.1702695422241z" fill="rgba(28, 83, 142, 0.4)" class="triangle-float2"></path><path d="M1343.881,826.667C1419.337,833.498,1502.625,809.769,1538.843,743.221C1574.054,678.524,1540.327,602.115,1499.435,540.851C1463.818,487.491,1407.91,455.158,1343.881,451.133C1270.755,446.536,1185.294,454.523,1150.316,518.905C1116.117,581.853,1163.629,652.067,1201.769,712.708C1236.417,767.798,1279.066,820.8,1343.881,826.667" fill="rgba(28, 83, 142, 0.4)" class="triangle-float1"></path><path d="M1345.4416390526058 867.5768106576085L1446.4848395890572 699.4126851737635 1278.3207141052121 598.3694846373121 1177.2775135687607 766.533610121157z" fill="rgba(28, 83, 142, 0.4)" class="triangle-float1"></path><path d="M1022.12,959.596C1084.606,958.187,1138.021,919.837,1170.016,866.145C1202.895,810.97,1216.183,742.878,1184.588,686.957C1152.559,630.267,1087.15,601.111,1022.12,604.377C962.257,607.384,916.311,650.464,885.658,701.971C854.102,754.995,833.323,818.557,862.206,873.084C892.611,930.485,957.18,961.06,1022.12,959.596" fill="rgba(28, 83, 142, 0.4)" class="triangle-float3"></path><path d="M883.8407949422814 252.41944628899722L955.8220754550557 141.57799437686657 772.9993430301507 180.43816577622286z" fill="rgba(28, 83, 142, 0.4)" class="triangle-float3"></path><path d="M1413.6905973823627 544.0101662129816L1236.9418103461344 503.2044934662902 1196.136137599443 679.9532805025186 1372.8849246356713 720.75895324921z" fill="rgba(28, 83, 142, 0.4)" class="triangle-float3"></path></g><defs><mask id="SvgjsMask1044"><rect width="1366" height="738" fill="#ffffff"></rect></mask><linearGradient x1="11.49%" y1="-21.27%" x2="88.51%" y2="121.27%" gradientUnits="userSpaceOnUse" id="SvgjsLinearGradient1045"><stop stop-color="#0e2a47" offset="0"></stop><stop stop-color="rgba(13, 139, 250, 1)" offset="1"></stop></linearGradient><style>
            @keyframes float1 {
                0%{transform: translate(0, 0)}
                50%{transform: translate(-10px, 0)}
                100%{transform: translate(0, 0)}
            }

            .triangle-float1 {
                animation: float1 5s infinite;
            }

            @keyframes float2 {
                0%{transform: translate(0, 0)}
                50%{transform: translate(-5px, -5px)}
                100%{transform: translate(0, 0)}
            }

            .triangle-float2 {
                animation: float2 4s infinite;
            }

            @keyframes float3 {
                0%{transform: translate(0, 0)}
                50%{transform: translate(0, -10px)}
                100%{transform: translate(0, 0)}
            }

            .triangle-float3 {
                animation: float3 6s infinite;
            }
        </style></defs></svg>